<?xml version="1.0" encoding="iso-8859-1"?>
<!-- Generator: Adobe Illustrator 19.0.0, SVG Export Plug-In . SVG Version: 6.00 Build 0)  -->
<svg version="1.1" id="Layer_1" xmlns="http://www.w3.org/2000/svg" xmlns:xlink="http://www.w3.org/1999/xlink" x="0px" y="0px"
	 viewBox="0 0 473.961 473.961" style="enable-background:new 0 0 473.961 473.961;" xml:space="preserve">
<circle style="fill:#4ABC96;" cx="236.994" cy="236.981" r="236.967"/>
<g>
	<path style="fill:#DFBA24;" d="M32.494,117.243C14.728,147.529,3.517,182.096,0.748,219.039h124.04
		c2.069,0,3.742,1.673,3.742,3.742s-1.673,3.742-3.742,3.742H0.262C0.116,229.987,0,233.463,0,236.966
		c0,1.822,0.101,3.626,0.138,5.437h124.65c2.069,0,3.742,1.673,3.742,3.742s-1.673,3.742-3.742,3.742H0.367
		c0.269,5.07,0.752,10.088,1.336,15.072h123.086c2.069,0,3.742,1.673,3.742,3.742s-1.673,3.742-3.742,3.742H2.653
		c1.482,9.848,3.618,19.476,6.271,28.89h140.837l7.315,17.788h135.546c9.83,0,22.312-13.295,22.312-23.121
		c0,0,9.126-9.036,12.344-36.426c0-71.704-16.868-147.213-16.868-147.213l-1.931,4.883L32.494,117.243L32.494,117.243z"/>
	<path style="fill:#DFBA24;" d="M427.177,281.059c0,21.358-17.313,38.671-38.668,38.671H328.45
		c-21.362,0-38.668-17.313-38.668-38.671v-42.974c0-21.354,10.765-38.129,32.12-38.129l66.608,15.042
		c21.478,6.447,38.668,11.817,38.668,38.671V281.059z"/>
	<polygon style="fill:#DFBA24;" points="305.524,335.307 163.726,335.307 143.322,320.262 155.138,279.446 305.524,279.446 	"/>
</g>
<path style="fill:#343433;" d="M425.03,293.856c0,9.822-7.899,25.268-17.721,25.268h-33.575c-9.822,0-17.788-7.963-17.788-17.788
	h59.416L425.03,293.856z"/>
<path style="fill:#D7AE29;" d="M407.365,300.527l-17.519,1.209l-75.464,33.571h-15.843l-2.238-4.932
	c-8.243-30.668,9.931-62.211,40.606-70.454C367.586,251.675,399.122,269.856,407.365,300.527z"/>
<circle style="fill:#202121;" cx="350.707" cy="317.653" r="41.384"/>
<circle style="fill:#5E5F5E;" cx="350.707" cy="317.653" r="19.012"/>
<path style="fill:#343433;" d="M292.043,319.124h-124.1V168.753c0-10.874,8.206-19.693,18.335-19.693h87.427
	c10.122,0,18.335,8.816,18.335,19.693v150.371H292.043z"/>
<path style="fill:#B1D4D7;" d="M287.212,319.124H172.773V180.468c0-10.032,7.562-18.159,16.913-18.159h80.617
	c9.34,0,16.913,8.127,16.913,18.159v138.656H287.212z"/>
<rect x="226.816" y="154.287" style="fill:#343433;" width="3.326" height="164.788"/>
<path style="fill:#B1D4D7;" d="M37.777,158.152c0-6.039,4.898-10.937,10.934-10.937h68.34c6.035,0,10.934,4.898,10.934,10.937v29.99
	c0,6.039-4.898,10.937-10.934,10.937h-68.34c-6.036,0-10.934-4.898-10.934-10.937V158.152z"/>
<rect x="39.925" y="168.281" style="fill:#D3E8E9;" width="86.211" height="7.484"/>
<path style="fill:#343433;" d="M323.365,199.686c0,1.152-8.756,0.924-15.027-6.402c-3.472-4.045-2.155-32.322-0.681-67.678
	c0.4-9.669,2.746-13.242,2.746-13.242S323.365,146.822,323.365,199.686z"/>
<path style="fill:#B1D4D7;" d="M323.519,191.091c0,1.078-6.978,0.135-11.409-6.713c-4.43-6.844-1.747-75.285-1.747-75.285
	S323.519,141.666,323.519,191.091z"/>
<g>
	<path style="fill:#343433;" d="M163.726,335.307l-6.649-16.183h-15.368C143.086,320.501,163.726,335.307,163.726,335.307z"/>
	<path style="fill:#343433;" d="M157.077,319.124l-7.315-17.788H8.924c1.695,6.021,3.573,11.97,5.721,17.788h127.06H157.077z"/>
	<path style="fill:#343433;" d="M128.53,246.148c0-2.069-1.673-3.742-3.742-3.742H0.138c0.06,2.5,0.094,5.003,0.228,7.484h124.422
		C126.854,249.89,128.53,248.213,128.53,246.148z"/>
	<path style="fill:#343433;" d="M128.53,222.78c0-2.069-1.673-3.742-3.742-3.742H0.745c-0.183,2.488-0.374,4.973-0.483,7.484
		h124.523C126.854,226.522,128.53,224.85,128.53,222.78z"/>
	<path style="fill:#343433;" d="M128.53,268.703c0-2.069-1.673-3.742-3.742-3.742H1.703c0.292,2.503,0.576,5.007,0.95,7.484h122.136
		C126.854,272.445,128.53,270.773,128.53,268.703z"/>
</g>
<path style="fill:#F6DA66;" d="M308.477,117.243l1.931-4.883c0-9.822-7.959-17.785-17.788-17.785H47.554
	c-5.452,7.24-10.458,14.817-15.061,22.668H308.477z"/>
<g>
</g>
<g>
</g>
<g>
</g>
<g>
</g>
<g>
</g>
<g>
</g>
<g>
</g>
<g>
</g>
<g>
</g>
<g>
</g>
<g>
</g>
<g>
</g>
<g>
</g>
<g>
</g>
<g>
</g>
</svg>
